#!OML:ASF H:\BreakDance\Project 1\Capture day 1\Session 1\Male.ASF
:FULLY-SPECIFIED
:DEGREES
510
root 18.6458 15.0244 -3.32693 3.56409 -56.8309 -2.60252
lowerback 0.0128274 -4.46915 5.15236
upperback 2.15814 -6.06412 1.2507
thorax 1.8218 -2.96138 -1.65453
lowerneck -1.12449 -0.908371 -1.26326
upperneck -13.2372 -1.53169 -0.343042
head -4.11827 -0.779566 0.16255
rclavicle 3.65267e-014 1.19271e-015
rhumerus -49.9123 2.39081 -84.4187
rradius 51.2409
rwrist 0.533064
rhand -37.0024 -27.0088
rfingers 7.12502
rthumb -10.077 -56.7475
lclavicle 3.65267e-014 1.19271e-015
lhumerus -40.1735 -20.82 100.467
lradius 48.4736
lwrist -8.34556
lhand -43.333 -53.444
lfingers 7.12502
lthumb -16.1791 -24.0992
rfemur -47.1029 -5.88901 26.3242
rtibia 60.5058
rfoot -11.3708 7.46535
rtoes 6.73952
lfemur -22.3646 2.26508 -19.3258
ltibia 82.3598
lfoot -17.936 -1.43876
ltoes -28.5773
511
root 18.5413 14.9544 -3.20608 3.2829 -57.5068 -2.65992
lowerback 0.278389 -4.27376 5.69504
upperback 2.31968 -5.80024 1.23566
thorax 1.80465 -2.81926 -1.95151
lowerneck -0.950938 -0.840975 -1.10589
upperneck -13.5784 -1.48543 -0.641641
head -4.27996 -0.752381 0.0370931
rclavicle 2.6339e-015 3.26007e-014
rhumerus -47.7833 1.88723 -83.687
rradius 49.5739
rwrist 1.82809
rhand -37.8463 -27.2933
rfingers 7.12502
rthumb -10.891 -56.9908
lclavicle 2.6339e-015 3.26007e-014
lhumerus -38.3021 -18.0946 98.7317
lradius 46.3091
lwrist -10.0131
lhand -43.9137 -56.2475
lfingers 7.12502
lthumb -16.7381 -26.9491
rfemur -46.9897 -5.95908 26.3853
rtibia 61.9299
rfoot -12.3561 7.46091
rtoes 6.48929
lfemur -25.1723 1.86921 -18.9997
ltibia 84.2442
lfoot -18.5255 -1.95988
ltoes -29.2522
512
root 18.4394 14.8832 -3.09076 3.04819 -58.2646 -2.75226
lowerback 0.569351 -4.01838 6.22025
upperback 2.4633 -5.4507 1.19978
thorax 1.76684 -2.63491 -2.26044
lowerneck -0.752926 -0.799618 -0.995332
upperneck -13.9648 -1.46425 -0.819847
head -4.46282 -0.739995 -0.0398402
rclavicle 1.41634e-014 3.97569e-015
rhumerus -45.7654 1.2828 -82.9831
rradius 48.0989
rwrist 2.99414
rhand -38.7355 -27.5032
rfingers 7.12502
rthumb -11.7486 -57.1537
lclavicle 1.41634e-014 3.97569e-015
lhumerus -36.723 -15.4285 96.9765
lradius 44.6292
lwrist -11.2709
lhand -44.5172 -58.7559
lfingers 7.12502
lthumb -17.319 -29.5075
rfemur -46.8476 -5.8095 26.4227
rtibia 63.2781
rfoot -13.3636 7.39654
rtoes 5.97589
lfemur -28.1306 1.69541 -18.5344
ltibia 86.1514
lfoot -19.0565 -2.3745
ltoes -29.9189
513
root 18.3417 14.8128 -2.98169 2.79144 -59.1305 -2.81868
lowerback 0.94456 -3.70694 6.70068
upperback 2.59713 -5.01559 1.1353
thorax 1.68773 -2.40963 -2.5719
lowerneck -0.581754 -0.779271 -0.944214
upperneck -14.3915 -1.4634 -0.894522
head -4.65553 -0.739576 -0.0714414
rclavicle 3.08613e-014 -1.70955e-014
rhumerus -43.8778 0.685334 -82.3563
rradius 46.8798
rwrist 3.79379
rhand -39.6516 -27.7255
rfingers 7.12502
rthumb -12.6319 -57.3236
lclavicle 3.08613e-014 -1.70955e-014
lhumerus -35.4581 -13.0222 95.2503
lradius 43.5533
lwrist -11.83
lhand -45.1069 -60.9024
lfingers 7.12502
lthumb -17.8865 -31.7049
rfemur -46.6645 -5.40846 26.3964
rtibia 64.5478
rfoot -14.3499 7.31428
rtoes 5.36931
lfemur -31.2224 1.76069 -17.9678
ltibia 88.0881
lfoot -19.5229 -2.69507
ltoes -30.5907
514
root 18.2496 14.7444 -2.87809 2.5199 -60.1014 -2.86615
lowerback 1.41634 -3.35303 7.16044
upperback 2.72768 -4.5116 1.04301
thorax 1.56588 -2.15158 -2.90014
lowerneck -0.474159 -0.76276 -0.946599
upperneck -14.881 -1.46397 -0.893076
head -4.85977 -0.74174 -0.0681164
rclavicle -8.59744e-015 3.93594e-014
rhumerus -42.1142 0.221019 -81.8436
rradius 45.9397
rwrist 4.09576
rhand -40.5452 -28.0564
rfingers 7.12502
rthumb -13.4933 -57.5992
lclavicle -8.59744e-015 3.93594e-014
lhumerus -34.4952 -11.0651 93.5862
lradius 43.1378
lwrist -11.5455
lhand -45.7148 -62.5865
lfingers 7.12502
lthumb -18.4714 -33.4435
rfemur -46.4506 -4.77277 26.3156
rtibia 65.735
rfoot -15.2563 7.25952
rtoes 5.0776
lfemur -34.4455 2.04426 -17.308
ltibia 90.0556
lfoot -19.9457 -2.9707
ltoes -31.2042
515
root 18.1638 14.6797 -2.77841 2.30521 -61.1364 -2.96103
lowerback 1.95538 -2.97333 7.64141
upperback 2.85885 -3.96324 0.939508
thorax 1.42 -1.87199 -3.25554
lowerneck -0.448945 -0.756428 -0.997053
upperneck -15.4384 -1.47967 -0.852764
head -5.07457 -0.752236 -0.0424812
rclavicle -3.99557e-014 3.02153e-014
rhumerus -40.4681 -0.0160007 -81.4352
rradius 45.2731
rwrist 3.92948
rhand -41.3673 -28.5109
rfingers 7.12502
rthumb -14.2856 -57.9995
lclavicle -3.99557e-014 3.02153e-014
lhumerus -33.7757 -9.65871 91.9876
lradius 43.3523
lwrist -10.4237
lhand -46.2721 -63.8418
lfingers 7.12502
lthumb -19.0074 -34.7505
rfemur -46.2203 -3.97622 26.2269
rtibia 66.8289
rfoot -16.0484 7.27056
rtoes 5.33051
lfemur -37.8072 2.49687 -16.5375
ltibia 92.0424
lfoot -20.3381 -3.2572
ltoes -31.6984
516
root 18.0835 14.6217 -2.68158 2.16494 -62.1573 -3.0939
lowerback 2.5003 -2.58677 8.12475
upperback 2.98661 -3.40065 0.836529
thorax 1.28073 -1.58536 -3.61982
lowerneck -0.400468 -0.761127 -1.05238
upperneck -16.552 -1.52384 -0.833046
head -4.90025 -0.772171 -0.00922327
rclavicle -1.83876e-014 8.74653e-015
rhumerus -38.9457 0.00263018 -81.0865
rradius 44.8516
rwrist 3.46331
rhand -42.0747 -29.0141
rfingers 7.12502
rthumb -14.9671 -58.4533
lclavicle -1.83876e-014 8.74653e-015
lhumerus -33.2224 -8.82881 90.4407
lradius 44.0918
lwrist -8.71334
lhand -46.7881 -64.674
lfingers 7.12502
lthumb -19.5036 -35.6322
rfemur -45.9938 -3.14252 26.1339
rtibia 67.8115
rfoot -16.722 7.36981
rtoes 6.05816
lfemur -41.3173 3.0281 -15.692
ltibia 94.0185
lfoot -20.7044 -3.60344
ltoes -32.0914
517
root 18.0073 14.5735 -2.58771 2.01178 -63.088 -3.14853
lowerback 2.99256 -2.19707 8.53951
upperback 3.10688 -2.83515 0.723448
thorax 1.17786 -1.29709 -3.96654
lowerneck -0.455049 -0.794312 -1.10732
upperneck -17.2778 -1.60493 -0.80764
head -5.1152 -0.815634 0.0146257
rclavicle 8.52786e-014 -1.43125e-014
rhumerus -37.571 0.213465 -80.7393
rradius 44.6382
rwrist 2.95038
rhand -42.6419 -29.4747
rfingers 7.12502
rthumb -15.5134 -58.8724
lclavicle 8.52786e-014 -1.43125e-014
lhumerus -32.7454 -8.56267 88.9114
lradius 45.1913
lwrist -6.78827
lhand -47.2836 -65.1277
lfingers 7.12502
lthumb -19.9799 -36.1348
rfemur -45.7793 -2.38969 25.9868
rtibia 68.6618
rfoot -17.2942 7.55521
rtoes 7.04677
lfemur -44.9648 3.54368 -14.8594
ltibia 95.9404
lfoot -21.0319 -4.03228
ltoes -32.4235
518
root 17.9335 14.5385 -2.49788 1.71314 -63.8944 -2.99877
lowerback 3.42745 -1.79257 8.81451
upperback 3.21107 -2.25367 0.582589
thorax 1.10643 -1.00171 -4.27308
lowerneck -0.496019 -0.883896 -1.12231
upperneck -18.0197 -1.76536 -0.799881
head -5.33886 -0.899096 0.0303939
rclavicle 4.19436e-014 7.95139e-015
rhumerus -36.3962 0.516884 -80.3392
rradius 44.5988
rwrist 2.65129
rhand -43.0786 -29.8013
rfingers 7.12502
rthumb -15.9341 -59.1658
lclavicle 4.19436e-014 7.95139e-015
lhumerus -32.2818 -8.81122 87.3581
lradius 46.4866
lwrist -4.98963
lhand -47.7066 -65.2895
lfingers 7.12502
lthumb -20.3864 -36.3396
rfemur -45.5348 -1.77241 25.7362
rtibia 69.3478
rfoot -17.7875 7.7853
rtoes 8.00275
lfemur -48.6883 4.00732 -14.1124
ltibia 97.7638
lfoot -21.3028 -4.53944
ltoes -32.7055
519
root 17.8616 14.5208 -2.41294 1.0806 -64.5596 -2.46718
lowerback 3.82891 -1.37834 8.85265
upperback 3.29477 -1.66456 0.409176
thorax 1.04558 -0.705796 -4.48726
lowerneck -0.497803 -1.0261 -1.11068
upperneck -18.7654 -1.99837 -0.798529
head -5.57184 -1.01849 0.0439802
rclavicle -3.86636e-014 9.93923e-015
rhumerus -35.4499 0.904348 -79.846
rradius 44.7126
rwrist 2.71257
rhand -43.4165 -30.0058
rfingers 7.12502
rthumb -16.2594 -59.344
lclavicle -3.86636e-014 9.93923e-015
lhumerus -31.7746 -9.44716 85.757
lradius 47.8377
lwrist -3.58062
lhand -48.031 -65.2019
lfingers 7.12502
lthumb -20.6982 -36.2856
rfemur -45.2053 -1.32755 25.3071
rtibia 69.8315
rfoot -18.2112 8.0349
rtoes 8.73889
lfemur -52.4112 4.39118 -13.5466
ltibia 99.4476
lfoot -21.5017 -5.10084
ltoes -32.9169
520
root 17.7918 14.5235 -2.3337 0.0629027 -65.0851 -1.53832
lowerback 4.23659 -0.96833 8.62061
upperback 3.37034 -1.0877 0.226613
thorax 0.97771 -0.420688 -4.56306
lowerneck -0.50097 -1.20381 -1.13133
upperneck -19.475 -2.27725 -0.774937
head -5.79413 -1.15881 0.0728161
rclavicle -2.68359e-015 -4.09496e-014
rhumerus -34.7179 1.43967 -79.2403
rradius 44.9697
rwrist 3.09094
rhand -43.685 -30.1635
rfingers 7.12502
rthumb -16.5179 -59.4804
lclavicle -2.68359e-015 -4.09496e-014
lhumerus -31.1729 -10.3281 84.1037
lradius 49.1568
lwrist -2.66091
lhand -48.2626 -64.9064
lfingers 7.12502
lthumb -20.9208 -36.0146
rfemur -44.7234 -1.05189 24.7044
rtibia 70.0677
rfoot -18.5567 8.2953
rtoes 9.24557
lfemur -56.0529 4.70702 -13.1696
ltibia 100.968
lfoot -21.6153 -5.67747
ltoes -33.0746
